<svg id="Layer_1" viewBox="0 0 24 24" xmlns="http://www.w3.org/2000/svg" data-name="Layer 1"><path d="m24 4.683v9.817c0 .276-.224.5-.5.5s-.5-.224-.5-.5v-9.817c0-1.095-.482-2.125-1.322-2.827-.842-.703-1.944-.992-3.018-.796l-3.995.726c-1.255.228-2.165 1.319-2.165 2.594v10.12c0 .276-.224.5-.5.5s-.5-.224-.5-.5v-10.119c0-1.275-.91-2.366-2.165-2.594l-3.995-.726c-1.076-.196-2.177.094-3.018.795s-1.323 1.731-1.323 2.827v13.373c0 1.781 1.271 3.304 3.023 3.623l6.57 1.195c.463.084.936.126 1.407.126.276 0 .5.224.5.5s-.224.5-.5.5c-.53 0-1.064-.048-1.585-.143l-6.57-1.195c-2.228-.405-3.844-2.342-3.844-4.606v-13.373c0-1.392.613-2.703 1.682-3.595 1.068-.892 2.469-1.261 3.837-1.011l3.995.726c1.074.195 1.964.85 2.486 1.739.521-.889 1.411-1.544 2.485-1.739l3.995-.726c1.373-.248 2.768.12 3.838 1.012 1.068.892 1.682 2.203 1.682 3.595zm-15.397 4.379-5-1.052c-.268-.058-.536.116-.592.386-.057.271.116.536.386.592l5 1.052c.263.057.537-.114.592-.386.057-.271-.116-.536-.386-.592zm0 4-5-1.052c-.268-.058-.536.116-.592.386-.057.271.116.536.386.592l5 1.052c.263.057.537-.114.592-.386.057-.271-.116-.536-.386-.592zm-4.994 2.95c-.269-.06-.537.108-.597.378-.061.269.109.537.378.597l3 .674c.262.061.538-.107.597-.378.061-.269-.109-.537-.378-.597zm4.994-10.95-5-1.052c-.268-.057-.536.116-.592.386-.057.271.116.536.386.592l5 1.052c.263.057.537-.114.592-.386.057-.271-.116-.536-.386-.592zm6.407.592c.055.272.329.444.592.386l5-1.052c.27-.057.443-.322.386-.592-.056-.27-.324-.444-.592-.386l-5 1.052c-.27.057-.443.322-.386.592zm6.502 10.792-1.513-.756v-3.691c0-1.103-.897-2-2-2s-2 .897-2 2l-.003 5.977c-.16-.149-.328-.309-.329-.309-.734-.737-1.972-.874-2.781-.29-1.05.717-1.187 2.339-.271 3.213l3.207 3.272c.194.197.51.201.707.007.197-.193.201-.51.008-.707l-3.211-3.275c-.485-.465-.414-1.318.146-1.698.424-.305 1.084-.221 1.497.193 0 0 .308.293.532.497.242.221.646.593 1.091.397.187-.082.408-.28.408-.763v-6.513c0-.551.448-1 1-1s1 .449 1 1v4c0 .189.107.362.276.447l1.789.895c1.193.597 1.935 1.796 1.935 3.13v3.028c0 .276.224.5.5.5s.5-.224.5-.5v-3.028c0-1.715-.953-3.258-2.487-4.025z"/></svg>